<svg width="255" height="68" viewBox="0 0 255 68" fill="none" xmlns="http://www.w3.org/2000/svg">
<path d="M129.052 60.9126V52.8832H131.865C132.644 52.8305 133.42 53.0264 134.081 53.4427C134.333 53.633 134.533 53.8823 134.665 54.1685C134.796 54.4547 134.856 54.769 134.837 55.0835C134.844 55.4529 134.738 55.8156 134.534 56.1231C134.328 56.4258 134.032 56.6564 133.689 56.7824C134.077 56.8694 134.422 57.09 134.663 57.4056C134.907 57.7376 135.032 58.1414 135.019 58.5528C135.041 58.8825 134.986 59.2127 134.857 59.5172C134.729 59.8216 134.532 60.0919 134.28 60.3064C133.667 60.7411 132.924 60.955 132.173 60.9132L129.052 60.9126ZM130.707 57.4191V59.584H132.124C132.452 59.6038 132.776 59.505 133.037 59.3056C133.146 59.2107 133.232 59.0924 133.289 58.9595C133.345 58.8266 133.371 58.6826 133.365 58.5382C133.383 58.3848 133.366 58.2291 133.315 58.0832C133.264 57.9374 133.18 57.8052 133.07 57.697C132.959 57.5888 132.826 57.5074 132.679 57.4591C132.532 57.4108 132.376 57.397 132.223 57.4186L130.707 57.4191ZM130.707 56.2499H131.931C132.766 56.2353 133.183 55.9026 133.183 55.252C133.197 55.1052 133.175 54.9572 133.12 54.8204C133.065 54.6836 132.978 54.5621 132.866 54.466C132.566 54.2825 132.216 54.1985 131.865 54.2259H130.707V56.2499ZM147.442 57.0827C147.457 57.797 147.313 58.5056 147.022 59.158C146.767 59.7259 146.35 60.2056 145.822 60.5368C145.284 60.8659 144.663 61.0346 144.032 61.0231C143.405 61.0336 142.787 60.8674 142.251 60.5436C141.721 60.2149 141.3 59.7383 141.039 59.1726C140.741 58.5311 140.592 57.8308 140.603 57.1239V56.7294C140.588 56.0114 140.734 55.2991 141.03 54.6446C141.288 54.0744 141.708 53.5929 142.238 53.2601C142.775 52.934 143.393 52.7668 144.022 52.7778C144.65 52.7668 145.268 52.934 145.805 53.2601C146.335 53.5929 146.755 54.0744 147.013 54.6446C147.309 55.2981 147.455 56.0094 147.44 56.7266L147.442 57.0827ZM145.765 56.7187C145.809 56.0484 145.652 55.3803 145.315 54.7996C145.174 54.588 144.981 54.4164 144.755 54.3014C144.528 54.1863 144.276 54.1318 144.022 54.1431C143.77 54.1323 143.52 54.1863 143.295 54.2997C143.07 54.4131 142.878 54.5823 142.737 54.7911C142.399 55.3647 142.24 56.0263 142.28 56.6911V57.0827C142.241 57.7491 142.397 58.4123 142.731 58.9906C142.87 59.2071 143.063 59.3833 143.291 59.5016C143.519 59.62 143.775 59.6764 144.032 59.6651C144.283 59.6761 144.533 59.6216 144.758 59.5071C144.982 59.3925 145.173 59.2218 145.311 59.0115C145.645 58.4344 145.802 57.7719 145.762 57.1064L145.765 56.7187ZM159.826 57.0827C159.84 57.797 159.697 58.5057 159.405 59.158C159.15 59.7259 158.733 60.2056 158.206 60.5368C157.667 60.8653 157.047 61.0336 156.416 61.022C155.789 61.0325 155.172 60.8663 154.635 60.5424C154.106 60.2141 153.684 59.7379 153.422 59.1726C153.125 58.5311 152.976 57.8308 152.987 57.1239V56.7294C152.972 56.0114 153.118 55.2991 153.414 54.6446C153.672 54.0744 154.092 53.5929 154.622 53.2601C155.159 52.934 155.777 52.7668 156.406 52.7778C157.034 52.7668 157.652 52.934 158.189 53.2601C158.719 53.5916 159.139 54.0715 159.398 54.6401C159.693 55.2935 159.839 56.0049 159.825 56.7221L159.826 57.0827ZM158.149 56.7187C158.193 56.0484 158.036 55.3803 157.699 54.7996C157.558 54.5879 157.365 54.4162 157.138 54.3012C156.912 54.1862 156.659 54.1317 156.406 54.1431C156.154 54.1323 155.904 54.1863 155.679 54.2997C155.454 54.4131 155.262 54.5823 155.121 54.7911C154.782 55.3647 154.623 56.0263 154.663 56.6911V57.0827C154.625 57.7486 154.782 58.4112 155.115 58.989C155.254 59.2058 155.447 59.3824 155.676 59.501C155.904 59.6197 156.16 59.6763 156.417 59.6651C156.668 59.6762 156.918 59.6219 157.142 59.5077C157.366 59.3934 157.557 59.2231 157.696 59.0132C158.03 58.4361 158.186 57.7736 158.147 57.1081L158.149 56.7187ZM171.188 54.2237H168.729V60.9126H167.074V54.2237H164.648V52.8837H171.188V54.2237ZM182.866 58.2384C182.854 58.6259 182.763 59.0068 182.598 59.3576C182.433 59.7085 182.199 60.022 181.908 60.2787C181.267 60.7977 180.457 61.0626 179.633 61.0231C179.176 61.0451 178.72 60.963 178.299 60.7829C177.878 60.6028 177.504 60.3295 177.204 59.9835C176.574 59.1702 176.26 58.1566 176.319 57.1295V56.6387C176.304 55.937 176.443 55.2406 176.727 54.5984C176.972 54.0416 177.378 53.5707 177.893 53.2461C178.424 52.9248 179.035 52.7612 179.655 52.7744C180.469 52.7345 181.268 52.9995 181.897 53.5177C182.485 54.0594 182.836 54.8099 182.877 55.6081H181.221C181.221 55.1918 181.067 54.7901 180.788 54.4812C180.469 54.224 180.063 54.0988 179.655 54.1313C179.415 54.116 179.175 54.1625 178.958 54.2663C178.741 54.37 178.554 54.5276 178.415 54.724C178.1 55.2835 177.953 55.9223 177.993 56.5632V57.1701C177.946 57.8285 178.082 58.4872 178.388 59.0724C178.524 59.2732 178.711 59.4343 178.93 59.5396C179.149 59.6449 179.392 59.6905 179.634 59.6719C180.046 59.7042 180.455 59.5791 180.778 59.322C181.056 59.0291 181.21 58.6415 181.211 58.2384H182.866ZM193.071 59.2583H190.17L189.616 60.9126H187.857L190.844 52.8832H192.377L195.382 60.9126H193.628L193.071 59.2583ZM190.617 57.9184H192.624L191.615 54.9128L190.617 57.9184ZM202.885 52.8837L204.947 58.7072L206.999 52.8837H209.169V60.9126H207.509V58.7151L207.675 54.9263L205.51 60.9126H204.374L202.212 54.9348L202.378 58.7179V60.9155H200.724V52.886L202.885 52.8837ZM216.859 58.084V60.9126H215.205V52.8832H218.337C218.886 52.8715 219.43 52.9846 219.928 53.2139C220.366 53.4162 220.733 53.7435 220.984 54.1544C221.234 54.5732 221.362 55.0535 221.354 55.5411C221.37 55.8921 221.305 56.2421 221.165 56.5644C221.025 56.8867 220.813 57.1726 220.546 57.4005C219.906 57.8876 219.112 58.1293 218.31 58.0818L216.859 58.084ZM216.859 56.7441H218.337C218.698 56.7691 219.054 56.659 219.338 56.4353C219.456 56.3222 219.548 56.1847 219.608 56.0323C219.667 55.8798 219.693 55.7162 219.683 55.5529C219.69 55.3788 219.664 55.205 219.604 55.0413C219.544 54.8776 219.453 54.7273 219.335 54.599C219.209 54.4743 219.06 54.3767 218.895 54.3122C218.73 54.2477 218.554 54.2175 218.377 54.2237H216.861L216.859 56.7441Z" fill="#303030"/>
<path d="M120.249 34.3946C118.974 35.8395 117.334 36.9165 115.502 37.5134C113.318 38.2756 111.018 38.6509 108.705 38.6223C106.304 38.676 103.932 38.0865 101.836 36.915C99.8504 35.7576 98.2611 34.0275 97.276 31.9514C96.1557 29.5596 95.5924 26.9449 95.6285 24.304V22.2524C95.5628 19.5652 96.0819 16.8959 97.1498 14.4291C98.0684 12.337 99.6011 10.5735 101.545 9.37254C103.579 8.1727 105.909 7.56607 108.27 7.62127C111.848 7.62127 114.647 8.47437 116.666 10.1806C118.684 11.8867 119.879 14.3702 120.251 17.6308H114.199C113.923 15.9028 113.311 14.6385 112.365 13.838C111.249 12.9816 109.863 12.555 108.459 12.6362C107.517 12.5874 106.579 12.7809 105.733 13.1982C104.888 13.6155 104.164 14.2426 103.63 15.0196C102.525 16.6086 101.965 18.9713 101.951 22.1075V24.0352C101.951 27.1993 102.552 29.5895 103.754 31.2059C104.956 32.8223 106.718 33.63 109.039 33.6288C111.374 33.6288 113.039 33.1315 114.034 32.1368V26.9348H108.376V22.3549H120.251L120.249 34.3946ZM123.959 26.7877C123.922 24.7324 124.362 22.6965 125.244 20.8397C126.049 19.1557 127.336 17.7491 128.943 16.7991C130.646 15.8217 132.584 15.3274 134.547 15.3696C137.573 15.3696 140.042 16.2953 141.956 18.1469C143.869 19.9985 144.937 22.5131 145.158 25.6907L145.201 27.2233C145.201 30.6635 144.241 33.4234 142.321 35.5029C140.401 37.5825 137.824 38.6223 134.591 38.6223C131.358 38.6223 128.777 37.5861 126.85 35.5136C124.923 33.4412 123.96 30.6227 123.959 27.0582V26.7877ZM129.948 27.2233C129.948 29.351 130.349 30.9779 131.15 32.1041C131.534 32.6535 132.051 33.0967 132.653 33.3923C133.254 33.6879 133.921 33.8262 134.59 33.7945C135.251 33.8209 135.908 33.6821 136.501 33.3907C137.095 33.0992 137.606 32.6644 137.99 32.1255C138.805 31.0132 139.212 29.2343 139.212 26.7889C139.212 24.7025 138.805 23.0859 137.99 21.9391C137.608 21.3844 137.092 20.9355 136.49 20.6347C135.888 20.3338 135.219 20.1907 134.547 20.2188C133.882 20.1911 133.221 20.3335 132.627 20.6323C132.033 20.9312 131.524 21.3767 131.15 21.9267C130.349 23.0679 129.948 24.8334 129.948 27.2233Z" fill="black"/>
<path d="M164.931 30.2903C164.96 29.7723 164.861 29.2553 164.644 28.784C164.428 28.3127 164.099 27.9014 163.688 27.5856C162.859 26.9571 161.367 26.2939 159.212 25.596C157.449 25.0585 155.736 24.3685 154.093 23.5337C150.666 21.6821 148.953 19.1882 148.953 16.0519C148.932 14.4875 149.416 12.958 150.331 11.6895C151.344 10.3395 152.715 9.30168 154.29 8.69467C156.13 7.95336 158.099 7.58688 160.082 7.61675C162.065 7.58104 164.032 7.98073 165.844 8.78765C167.441 9.49325 168.803 10.6399 169.771 12.093C170.709 13.5345 171.196 15.223 171.17 16.9428H164.952C164.986 16.3425 164.887 15.7422 164.661 15.185C164.435 14.6278 164.089 14.1276 163.647 13.7203C162.607 12.898 161.301 12.4894 159.978 12.573C158.723 12.497 157.478 12.8356 156.434 13.5366C156.033 13.8249 155.708 14.2067 155.488 14.6488C155.268 15.0909 155.159 15.58 155.17 16.0739C155.182 16.5781 155.325 17.0706 155.585 17.5029C155.845 17.9352 156.212 18.2927 156.652 18.5402C158.01 19.3658 159.479 19.9938 161.014 20.4053C164.551 21.4691 167.128 22.7886 168.744 24.3637C169.535 25.1224 170.159 26.0378 170.576 27.0513C170.994 28.0647 171.195 29.1541 171.167 30.2497C171.214 31.4383 170.969 32.6203 170.452 33.6917C169.935 34.7631 169.163 35.6912 168.204 36.3943C166.228 37.8796 163.568 38.6223 160.225 38.6223C158.045 38.6507 155.884 38.2162 153.885 37.3477C152.13 36.6198 150.617 35.4083 149.523 33.8542C148.509 32.3348 147.984 30.5412 148.02 28.7148H154.258C154.258 32.0445 156.248 33.7094 160.227 33.7094C161.447 33.7807 162.658 33.4652 163.688 32.8078C164.089 32.5257 164.413 32.1475 164.63 31.7078C164.848 31.2681 164.951 30.7803 164.931 30.2903ZM182.153 10.2713V15.7848H185.985V20.1799H182.153V31.371C182.096 32.0028 182.265 32.6346 182.63 33.1533C182.948 33.5124 183.556 33.6919 184.454 33.6919C185.044 33.6982 185.634 33.6497 186.215 33.5471V38.0859C185.04 38.4445 183.817 38.6253 182.588 38.6223C178.388 38.6223 176.247 36.5016 176.165 32.2602V20.1799H172.891V15.7848H176.165V10.2718L182.153 10.2713ZM202.318 38.2076C202.013 37.5735 201.81 36.8949 201.717 36.1971C201.01 36.9915 200.136 37.6203 199.158 38.0391C198.18 38.4578 197.122 38.6562 196.059 38.62C194.064 38.6916 192.115 38.011 190.598 36.7133C189.902 36.1234 189.347 35.3857 188.972 34.5539C188.597 33.7222 188.413 32.8172 188.432 31.9052C188.379 30.8449 188.593 29.7882 189.055 28.8322C189.516 27.8762 190.211 27.0515 191.074 26.4339C192.836 25.1627 195.381 24.5201 198.711 24.5062H201.468V23.2226C201.513 22.3241 201.229 21.4398 200.67 20.7355C200.345 20.4035 199.951 20.1476 199.515 19.9864C199.08 19.8251 198.614 19.7625 198.151 19.8029C197.299 19.7531 196.457 20.0104 195.779 20.5281C195.493 20.7723 195.267 21.0785 195.118 21.4233C194.969 21.7681 194.901 22.1425 194.919 22.5177H188.93C188.931 21.2174 189.352 19.9521 190.132 18.9115C191.006 17.75 192.181 16.8503 193.531 16.3105C195.094 15.6628 196.772 15.342 198.464 15.3679C201.227 15.3679 203.42 16.0628 205.044 17.4527C206.667 18.8426 207.479 20.7941 207.479 23.3072V33.027C207.493 35.1547 207.79 36.7644 208.371 37.856V38.2082L202.318 38.2076ZM197.365 34.0413C198.217 34.0493 199.057 33.8464 199.811 33.4508C200.511 33.1014 201.089 32.5487 201.469 31.8652V28.0121H199.231C196.232 28.0121 194.636 29.0484 194.441 31.1208L194.42 31.473C194.411 31.8191 194.476 32.1632 194.612 32.4816C194.749 32.7999 194.952 33.085 195.209 33.3172C195.808 33.8268 196.58 34.0861 197.365 34.0413ZM221.406 33.7934C222.386 33.8366 223.347 33.5113 224.1 32.8817C224.443 32.5785 224.716 32.2053 224.902 31.7873C225.088 31.3693 225.182 30.9162 225.178 30.4587H230.794C230.79 31.9412 230.357 33.3909 229.548 34.6329C228.725 35.904 227.567 36.9226 226.201 37.5759C224.739 38.2837 223.133 38.642 221.509 38.6223C218.304 38.6223 215.775 37.6024 213.924 35.5627C212.073 33.5229 211.147 30.7087 211.147 27.1202V26.7257C211.147 23.2698 212.066 20.5135 213.903 18.4568C215.741 16.4001 218.262 15.3709 221.468 15.369C224.272 15.369 226.521 16.1669 228.214 17.7626C229.906 19.3584 230.766 21.4826 230.794 24.1355H225.177C225.194 23.0893 224.808 22.0767 224.099 21.3068C223.746 20.9431 223.319 20.6581 222.848 20.4706C222.376 20.2831 221.871 20.1973 221.364 20.2188C220.751 20.1827 220.139 20.3035 219.586 20.5697C219.033 20.8359 218.557 21.2387 218.203 21.7402C217.492 22.7544 217.136 24.402 217.136 26.6829V27.3027C217.136 29.61 217.488 31.2679 218.193 32.2765C218.555 32.7817 219.041 33.1862 219.603 33.4516C220.165 33.7171 220.786 33.8347 221.406 33.7934ZM242.359 29.2135L240.203 31.3687V38.2076H234.214V6.37486H240.203V24.0115L241.363 22.5194L247.104 15.7848H254.296L246.192 25.1306L255 38.2076H248.119L242.359 29.2135Z" fill="#04D361"/>
<path d="M64.3822 16.4107C56.4677 12.0674 48.4562 7.62729 40.5412 3.2818C39.7391 2.85399 38.8441 2.6302 37.9351 2.6302C37.0261 2.6302 36.1311 2.85399 35.3291 3.2818C27.4145 7.6256 19.4995 12.0652 11.585 16.4107C10.8263 16.8151 10.1867 17.411 9.7295 18.1391C9.27234 18.8672 9.0136 19.7022 8.97894 20.5612V47.0083C8.99183 47.8973 9.25156 48.7652 9.72916 49.5152C10.2068 50.2651 10.8834 50.8675 11.6836 51.2552C13.9036 52.4136 16.0268 53.6679 18.2475 54.8264L31.1814 61.969L35.1386 64.1891C35.4087 64.3575 35.7009 64.4874 36.0069 64.575L36.3929 64.7683H36.4898C37.8114 65.1317 39.2206 64.9942 40.4471 64.3823C48.3621 60.0391 56.2767 55.599 64.1917 51.2535C64.9874 50.86 65.6601 50.2562 66.1369 49.5075C66.6136 48.7589 66.8763 47.894 66.8964 47.0066V20.5595C66.8678 19.7105 66.6215 18.8831 66.1813 18.1566C65.741 17.4302 65.1216 16.829 64.3822 16.4107ZM30.1169 46.043L23.9396 51.738C23.9015 51.7746 23.8558 51.8022 23.8057 51.8189C23.7556 51.8355 23.7024 51.8409 23.65 51.8344H23.5531C23.5242 51.8261 23.4977 51.811 23.476 51.7902C23.4543 51.7694 23.438 51.7436 23.4285 51.715C23.419 51.6865 23.4166 51.6561 23.4215 51.6264C23.4265 51.5967 23.4385 51.5687 23.4567 51.5448L25.6768 43.437C25.7802 42.9949 25.9937 42.5861 26.2974 42.2486C26.6011 41.9111 26.9852 41.6559 27.414 41.5065L27.5103 41.4102C27.6235 41.3783 27.7422 41.3704 27.8586 41.387C27.975 41.4036 28.0867 41.4443 28.1865 41.5065C28.573 41.7962 28.8626 41.9889 29.2486 42.2785C29.6127 42.5395 30.0004 42.7659 30.4066 42.9547C30.5191 43.0049 30.6152 43.0859 30.6836 43.1884C30.752 43.2909 30.79 43.4107 30.7932 43.5339L30.9858 43.7272C31.0337 44.1542 30.9801 44.5865 30.8292 44.9889C30.6783 45.3913 30.4344 45.7523 30.1175 46.0425L30.1169 46.043ZM36.4876 40.445C36.3912 40.445 36.3912 40.5413 36.2943 40.5413L34.3638 40.348C34.259 40.3351 34.1526 40.3457 34.0524 40.3792C33.9522 40.4126 33.8607 40.468 33.7846 40.5413L31.6615 42.4718C31.6234 42.5084 31.5777 42.536 31.5275 42.5527C31.4774 42.5694 31.4242 42.5747 31.3718 42.5681C30.342 42.1046 29.3702 41.5216 28.4767 40.8309C28.3803 40.7346 28.2835 40.6377 28.3804 40.5413L29.0565 37.742C29.0879 37.6448 29.0955 37.5414 29.0787 37.4407C29.062 37.3399 29.0213 37.2446 28.9602 37.1627L27.898 35.5219C27.898 35.4256 27.8016 35.4256 27.8016 35.3286C27.8016 35.1354 27.898 34.9427 27.898 34.6525V34.5561C27.898 34.5561 27.9944 34.4598 27.9944 34.5561C28.8632 35.1354 32.5309 37.3555 32.5309 37.3555C32.5309 37.3555 36.1991 39.5755 37.0674 40.1548C37.104 40.1928 37.1316 40.2386 37.1483 40.2887C37.165 40.3388 37.1702 40.392 37.1637 40.4444L36.4876 40.445ZM49.4215 22.7813L49.5178 22.8776L51.4483 23.1673H51.5447C51.9306 23.2636 52.4135 23.7465 51.7373 24.6154L43.6324 35.6183C43.5191 35.6949 43.3824 35.729 43.2464 35.7146L39.9642 33.6861C39.8035 33.5909 39.6202 33.5407 39.4334 33.5407C39.2466 33.5407 39.0633 33.5909 38.9026 33.6861L37.841 34.3623C37.6801 34.4571 37.4967 34.5072 37.3099 34.5072C37.1232 34.5072 36.9398 34.4571 36.7789 34.3623C36.4782 34.134 36.1027 34.0272 35.7269 34.063C35.3511 34.0988 35.0025 34.2746 34.7504 34.5556C34.0811 35.0781 33.265 35.3778 32.4166 35.4125C31.5682 35.4472 30.7302 35.2151 30.0206 34.7488L25.6774 32.0442L25.4841 31.8509C25.352 31.7402 25.2441 31.6036 25.1672 31.4494C25.0902 31.2953 25.0459 31.1269 25.0368 30.9548C25.0278 30.7828 25.0543 30.6107 25.1146 30.4493C25.175 30.2879 25.268 30.1407 25.3878 30.0168V30.0168C25.5833 29.7009 25.8942 29.4737 26.2546 29.3835C26.615 29.2933 26.9964 29.3473 27.3176 29.5339L28.1865 30.0168H28.2828C28.3798 30.1132 28.4761 30.0168 28.4761 29.9204L28.6689 28.762C28.6689 28.6656 28.6688 28.5687 28.5725 28.5687L28.3798 28.4723C28.1972 28.3489 28.0667 28.1623 28.0133 27.9485C27.9598 27.7347 27.9872 27.5087 28.0902 27.3138C28.1407 27.2249 28.2082 27.1468 28.289 27.0841C28.3697 27.0214 28.4621 26.9752 28.5607 26.9483C28.6594 26.9214 28.7624 26.9142 28.8638 26.9273C28.9652 26.9403 29.0631 26.9732 29.1517 27.0242L35.0395 30.5955H35.1364C35.2327 30.6918 35.329 30.5955 35.426 30.4991L41.5064 22.1981C41.6298 22.0411 41.7947 21.9217 41.9824 21.8535C42.1701 21.7853 42.3731 21.771 42.5685 21.8121L44.1124 22.0054L45.174 22.1987C45.174 22.295 45.271 22.1987 45.271 22.1987C45.3673 22.1023 45.3673 22.1023 45.271 22.1023C45.0827 21.9588 44.9573 21.7478 44.9213 21.5138C44.8852 21.2798 44.9413 21.041 45.0777 20.8474L47.1062 18.0481C47.2238 17.9105 47.3731 17.8034 47.5412 17.7362C47.7093 17.669 47.8913 17.6435 48.0714 17.6621L51.9318 18.2414C52.0065 18.2428 52.08 18.2609 52.1469 18.2943C52.2137 18.3277 52.2723 18.3757 52.3183 18.4347L52.4146 18.531C52.6079 18.7243 52.5115 19.0139 52.3183 19.2072C52.3183 19.2072 50.3878 21.8132 49.7122 22.7785V22.8748C49.2288 22.588 49.2288 22.6844 49.4215 22.7807V22.7813Z" fill="#04D361"/>
<path d="M45.8525 6.27552C48.8445 3.95909 50.4854 3.47619 52.9951 3.47619C53.73 3.47634 54.4555 3.64137 55.1182 3.9591C57.3388 5.21395 58.3035 8.9785 57.6279 14.3833L60.8132 16.1205C61.8748 8.40093 60.4273 3.09022 56.6627 0.966501C55.4837 0.309756 54.1517 -0.0232668 52.8023 0.00126781C49.4215 0.00126781 46.7214 0.966498 42.4745 4.34451C43.7265 5.02124 44.7887 5.69684 45.8525 6.27552Z" fill="black"/>
<path d="M8.97949 40.0584C4.53934 37.9347 3.47774 36.1975 3.47774 33.7847C3.47774 31.275 5.98688 28.8623 10.5211 26.7414V22.8776C3.76455 25.6764 0 29.5379 0 33.6878C0 37.9347 2.22009 40.9267 8.97667 43.7261L8.97949 40.0584Z" fill="black"/>
<path d="M17.9539 12.8394C17.3746 7.53038 18.3398 5.31086 20.6585 4.05601C21.2955 3.66951 22.0407 3.50007 22.7822 3.57312C25.2919 3.57312 28.1876 4.92545 31.178 7.24075L34.3632 5.50356C30.2127 2.12274 26.0622 0.19511 22.6842 0.19511C21.3346 0.170556 20.0026 0.503559 18.8233 1.16033C15.0587 3.3804 13.5149 7.04804 14.6728 14.7698C15.8324 14.0001 16.894 13.4186 17.9539 12.8394Z" fill="black"/>
<path d="M66.7955 23.8429V27.5105C71.2357 29.6342 72.2973 31.3714 72.2973 33.7842C72.2973 36.2939 69.7876 38.7066 65.2539 40.8276V44.6885C72.0105 41.8891 75.775 38.0282 75.775 33.8783C75.7722 29.6342 73.6468 26.6422 66.7955 23.8429Z" fill="black"/>
<path d="M30.0206 61.197C27.028 63.5135 25.3872 63.9964 22.8775 63.9964C22.1424 63.9965 21.4166 63.8317 20.7537 63.514C18.4373 62.2592 17.5684 58.3983 18.244 53.0898C17.1824 52.5106 16.024 51.9313 14.9624 51.2557C13.9008 58.8812 15.3483 64.1896 19.016 66.3134C20.1952 66.9701 21.5273 67.3031 22.8769 67.2786C26.2577 67.3749 29.0542 66.4097 33.3011 63.0317L30.0206 61.197Z" fill="black"/>
<path d="M57.8195 54.7301C58.3987 60.0385 57.3372 62.2586 55.1148 63.5135C54.4778 63.8998 53.7325 64.0691 52.9911 63.9958C50.4819 63.9958 47.5863 62.6435 44.4973 60.3282C43.4358 60.9074 42.3742 61.4867 41.2157 62.0653C45.4631 65.5403 49.5168 67.4707 52.9923 67.4707C54.342 67.4953 55.6742 67.1623 56.8537 66.5055C60.6182 64.2854 62.2585 60.6178 61.0042 52.896C60.0373 53.4752 58.881 54.0545 57.8195 54.7301Z" fill="black"/>
</svg>
